<svg width="97" height="15" viewBox="0 0 97 8" fill="none" xmlns="http://www.w3.org/2000/svg">
<path d="M 0 6.834 L 0.756 6.834 A 2.266 2.266 0 0 0 0.805 7.317 Q 0.879 7.656 1.064 7.912 A 1.439 1.439 0 0 0 1.077 7.929 A 1.87 1.87 0 0 0 1.888 8.546 A 2.242 2.242 0 0 0 1.929 8.562 A 3.094 3.094 0 0 0 2.8 8.755 A 3.69 3.69 0 0 0 3.09 8.766 A 4.238 4.238 0 0 0 3.576 8.74 Q 3.82 8.712 4.025 8.653 A 1.968 1.968 0 0 0 4.32 8.544 Q 4.794 8.322 5.016 7.962 A 1.453 1.453 0 0 0 5.226 7.386 A 1.414 1.414 0 0 0 5.238 7.2 A 1.623 1.623 0 0 0 5.191 6.8 A 1.169 1.169 0 0 0 4.905 6.273 A 2.317 2.317 0 0 0 4.441 5.9 A 3.045 3.045 0 0 0 4.044 5.694 A 16.689 16.689 0 0 0 3.079 5.313 A 18.54 18.54 0 0 0 2.934 5.262 A 8.924 8.924 0 0 1 1.943 4.841 A 7.898 7.898 0 0 1 1.686 4.707 A 3.033 3.033 0 0 1 1.066 4.264 A 2.614 2.614 0 0 1 0.756 3.918 A 1.753 1.753 0 0 1 0.438 3.168 A 2.401 2.401 0 0 1 0.402 2.742 A 2.536 2.536 0 0 1 0.468 2.15 A 1.905 1.905 0 0 1 0.753 1.503 A 2.164 2.164 0 0 1 1.626 0.773 A 2.607 2.607 0 0 1 1.71 0.735 A 3.156 3.156 0 0 1 2.524 0.512 A 4.121 4.121 0 0 1 3.096 0.474 A 3.673 3.673 0 0 1 3.873 0.552 Q 4.395 0.665 4.79 0.942 A 2.243 2.243 0 0 1 4.932 1.05 A 2.148 2.148 0 0 1 5.55 1.913 Q 5.708 2.299 5.766 2.79 L 5.01 2.79 Q 4.962 2.394 4.785 2.019 A 1.382 1.382 0 0 0 4.376 1.516 A 1.761 1.761 0 0 0 4.209 1.401 A 1.445 1.445 0 0 0 3.848 1.248 Q 3.674 1.199 3.463 1.177 A 3.538 3.538 0 0 0 3.09 1.158 A 3.285 3.285 0 0 0 2.544 1.2 Q 2.244 1.251 2.004 1.363 A 1.543 1.543 0 0 0 1.644 1.593 A 1.393 1.393 0 0 0 1.143 2.602 A 1.751 1.751 0 0 0 1.14 2.706 A 1.772 1.772 0 0 0 1.177 3.076 A 1.24 1.24 0 0 0 1.371 3.534 A 1.619 1.619 0 0 0 1.654 3.84 Q 1.796 3.96 1.976 4.066 A 2.955 2.955 0 0 0 2.064 4.116 A 6.436 6.436 0 0 0 2.443 4.306 Q 2.658 4.405 2.909 4.505 A 13.081 13.081 0 0 0 3.222 4.626 Q 3.714 4.806 4.203 5.007 A 4.904 4.904 0 0 1 4.914 5.367 A 4.371 4.371 0 0 1 5.094 5.484 Q 5.496 5.76 5.736 6.168 Q 5.976 6.576 5.976 7.182 A 2.644 2.644 0 0 1 5.913 7.771 A 1.978 1.978 0 0 1 5.649 8.409 A 1.929 1.929 0 0 1 5.019 9.013 A 2.548 2.548 0 0 1 4.677 9.186 A 3.192 3.192 0 0 1 4.054 9.371 Q 3.752 9.429 3.404 9.448 A 6.188 6.188 0 0 1 3.078 9.456 A 4.337 4.337 0 0 1 2.158 9.362 A 3.578 3.578 0 0 1 1.515 9.159 A 2.605 2.605 0 0 1 0.715 8.638 A 2.439 2.439 0 0 1 0.408 8.277 A 2.222 2.222 0 0 1 0.053 7.415 A 3.067 3.067 0 0 1 0 6.834 Z M 8.49 9.336 L 7.77 9.336 L 7.77 0 L 8.49 0 L 8.49 2.79 L 8.394 4.656 L 8.448 5.178 L 8.328 4.758 Q 8.4 4.2 8.673 3.72 Q 8.946 3.24 9.432 2.946 Q 9.918 2.652 10.626 2.652 A 2.704 2.704 0 0 1 11.21 2.711 Q 11.73 2.826 12.069 3.165 A 1.611 1.611 0 0 1 12.454 3.805 Q 12.538 4.056 12.567 4.362 A 3.569 3.569 0 0 1 12.582 4.698 L 12.582 9.336 L 11.862 9.336 L 11.862 4.902 A 3.144 3.144 0 0 0 11.835 4.476 Q 11.776 4.043 11.586 3.765 A 0.813 0.813 0 0 0 11.221 3.476 Q 10.947 3.36 10.53 3.36 A 2.208 2.208 0 0 0 9.984 3.424 A 1.687 1.687 0 0 0 9.396 3.699 A 2.097 2.097 0 0 0 9.081 3.99 Q 8.781 4.323 8.49 4.866 L 8.49 9.336 Z M 65.556 9.336 L 64.824 9.336 L 64.884 2.784 L 65.508 2.784 L 65.586 4.956 L 65.496 4.818 Q 65.554 4.115 65.763 3.626 A 2.142 2.142 0 0 1 65.988 3.222 A 1.388 1.388 0 0 1 66.396 2.835 Q 66.698 2.652 67.092 2.652 Q 67.47 2.652 67.71 2.793 Q 67.95 2.934 68.085 3.3 A 2.201 2.201 0 0 1 68.161 3.558 Q 68.225 3.83 68.258 4.206 A 7.718 7.718 0 0 1 68.268 4.332 L 68.286 4.47 L 68.286 9.336 L 67.584 9.336 L 67.584 4.914 A 5.511 5.511 0 0 0 67.57 4.509 Q 67.541 4.116 67.45 3.866 A 1.083 1.083 0 0 0 67.389 3.726 A 0.804 0.804 0 0 0 67.249 3.533 A 0.589 0.589 0 0 0 66.816 3.36 A 0.793 0.793 0 0 0 66.484 3.436 Q 66.373 3.487 66.263 3.57 A 1.573 1.573 0 0 0 66.189 3.63 Q 65.904 3.874 65.665 4.454 A 4.941 4.941 0 0 0 65.616 4.578 L 65.556 9.336 Z M 26.424 5.532 L 26.424 5.028 A 3.079 3.079 0 0 0 26.392 4.567 Q 26.31 4.028 26.019 3.741 A 1.232 1.232 0 0 0 25.567 3.465 Q 25.377 3.396 25.142 3.365 A 3.08 3.08 0 0 0 24.75 3.342 Q 23.821 3.342 23.395 3.729 A 1.05 1.05 0 0 0 23.373 3.75 Q 22.95 4.158 23.004 4.908 L 22.236 4.908 A 2.293 2.293 0 0 1 22.221 4.652 Q 22.221 4.274 22.356 3.946 A 1.761 1.761 0 0 1 22.446 3.759 A 1.872 1.872 0 0 1 23.057 3.108 A 2.411 2.411 0 0 1 23.316 2.958 Q 23.904 2.664 24.756 2.664 A 4.069 4.069 0 0 1 25.424 2.715 Q 26.149 2.836 26.562 3.243 A 1.887 1.887 0 0 1 27.06 4.126 Q 27.139 4.423 27.149 4.776 A 3.67 3.67 0 0 1 27.15 4.878 L 27.15 9.336 L 26.43 9.336 L 26.424 7.974 Q 26.28 8.418 25.962 8.739 A 2.118 2.118 0 0 1 25.3 9.188 A 2.482 2.482 0 0 1 25.188 9.234 A 2.62 2.62 0 0 1 24.574 9.384 A 3.35 3.35 0 0 1 24.162 9.408 A 2.999 2.999 0 0 1 23.565 9.352 Q 23.022 9.242 22.665 8.913 A 1.641 1.641 0 0 1 22.14 7.837 A 2.279 2.279 0 0 1 22.128 7.602 A 1.842 1.842 0 0 1 22.204 7.06 A 1.457 1.457 0 0 1 22.608 6.414 Q 23.088 5.964 24.15 5.754 Q 24.414 5.7 24.729 5.658 A 11.134 11.134 0 0 1 25.024 5.623 Q 25.175 5.607 25.344 5.592 A 19.481 19.481 0 0 1 25.458 5.583 A 15.914 15.914 0 0 1 25.788 5.56 Q 25.933 5.552 26.093 5.545 A 27.781 27.781 0 0 1 26.424 5.532 Z M 62.424 5.532 L 62.424 5.028 A 3.079 3.079 0 0 0 62.392 4.567 Q 62.31 4.028 62.019 3.741 A 1.232 1.232 0 0 0 61.567 3.465 Q 61.377 3.396 61.142 3.365 A 3.08 3.08 0 0 0 60.75 3.342 Q 59.821 3.342 59.395 3.729 A 1.05 1.05 0 0 0 59.373 3.75 Q 58.95 4.158 59.004 4.908 L 58.236 4.908 A 2.293 2.293 0 0 1 58.221 4.652 Q 58.221 4.274 58.356 3.946 A 1.761 1.761 0 0 1 58.446 3.759 A 1.872 1.872 0 0 1 59.057 3.108 A 2.411 2.411 0 0 1 59.316 2.958 Q 59.904 2.664 60.756 2.664 A 4.069 4.069 0 0 1 61.424 2.715 Q 62.149 2.836 62.562 3.243 A 1.887 1.887 0 0 1 63.06 4.126 Q 63.139 4.423 63.149 4.776 A 3.67 3.67 0 0 1 63.15 4.878 L 63.15 9.336 L 62.43 9.336 L 62.424 7.974 Q 62.28 8.418 61.962 8.739 A 2.118 2.118 0 0 1 61.3 9.188 A 2.482 2.482 0 0 1 61.188 9.234 A 2.62 2.62 0 0 1 60.574 9.384 A 3.35 3.35 0 0 1 60.162 9.408 A 2.999 2.999 0 0 1 59.565 9.352 Q 59.022 9.242 58.665 8.913 A 1.641 1.641 0 0 1 58.14 7.837 A 2.279 2.279 0 0 1 58.128 7.602 A 1.842 1.842 0 0 1 58.204 7.06 A 1.457 1.457 0 0 1 58.608 6.414 Q 59.088 5.964 60.15 5.754 Q 60.414 5.7 60.729 5.658 A 11.134 11.134 0 0 1 61.024 5.623 Q 61.175 5.607 61.344 5.592 A 19.481 19.481 0 0 1 61.458 5.583 A 15.914 15.914 0 0 1 61.788 5.56 Q 61.933 5.552 62.093 5.545 A 27.781 27.781 0 0 1 62.424 5.532 Z M 76.824 5.532 L 76.824 5.028 A 3.079 3.079 0 0 0 76.792 4.567 Q 76.71 4.028 76.419 3.741 A 1.232 1.232 0 0 0 75.967 3.465 Q 75.777 3.396 75.542 3.365 A 3.08 3.08 0 0 0 75.15 3.342 Q 74.221 3.342 73.795 3.729 A 1.05 1.05 0 0 0 73.773 3.75 Q 73.35 4.158 73.404 4.908 L 72.636 4.908 A 2.293 2.293 0 0 1 72.621 4.652 Q 72.621 4.274 72.756 3.946 A 1.761 1.761 0 0 1 72.846 3.759 A 1.872 1.872 0 0 1 73.457 3.108 A 2.411 2.411 0 0 1 73.716 2.958 Q 74.304 2.664 75.156 2.664 A 4.069 4.069 0 0 1 75.824 2.715 Q 76.549 2.836 76.962 3.243 A 1.887 1.887 0 0 1 77.46 4.126 Q 77.539 4.423 77.549 4.776 A 3.67 3.67 0 0 1 77.55 4.878 L 77.55 9.336 L 76.83 9.336 L 76.824 7.974 Q 76.68 8.418 76.362 8.739 A 2.118 2.118 0 0 1 75.7 9.188 A 2.482 2.482 0 0 1 75.588 9.234 A 2.62 2.62 0 0 1 74.974 9.384 A 3.35 3.35 0 0 1 74.562 9.408 A 2.999 2.999 0 0 1 73.965 9.352 Q 73.422 9.242 73.065 8.913 A 1.641 1.641 0 0 1 72.54 7.837 A 2.279 2.279 0 0 1 72.528 7.602 A 1.842 1.842 0 0 1 72.604 7.06 A 1.457 1.457 0 0 1 73.008 6.414 Q 73.488 5.964 74.55 5.754 Q 74.814 5.7 75.129 5.658 A 11.134 11.134 0 0 1 75.424 5.623 Q 75.575 5.607 75.744 5.592 A 19.481 19.481 0 0 1 75.858 5.583 A 15.914 15.914 0 0 1 76.188 5.56 Q 76.333 5.552 76.493 5.545 A 27.781 27.781 0 0 1 76.824 5.532 Z M 50.394 6.246 L 51.162 6.246 Q 51.042 6.954 51.183 7.446 Q 51.324 7.938 51.636 8.238 Q 51.948 8.538 52.347 8.676 A 2.501 2.501 0 0 0 52.882 8.8 A 2.19 2.19 0 0 0 53.13 8.814 A 2.923 2.923 0 0 0 53.651 8.77 Q 53.962 8.714 54.217 8.585 A 1.784 1.784 0 0 0 54.288 8.547 A 1.585 1.585 0 0 0 54.874 7.967 A 2.097 2.097 0 0 0 55.005 7.707 A 2.69 2.69 0 0 0 55.158 7.206 Q 55.209 6.962 55.231 6.678 A 6.023 6.023 0 0 0 55.248 6.21 L 55.248 0.612 L 56.01 0.612 L 56.01 6.33 Q 56.01 7.494 55.617 8.193 A 2.609 2.609 0 0 1 55.151 8.803 A 2.212 2.212 0 0 1 54.573 9.204 A 3.209 3.209 0 0 1 53.378 9.508 A 3.809 3.809 0 0 1 53.136 9.516 Q 52.542 9.516 51.999 9.324 Q 51.456 9.132 51.054 8.73 A 2.277 2.277 0 0 1 50.586 8.041 A 2.862 2.862 0 0 1 50.463 7.71 A 2.624 2.624 0 0 1 50.364 7.204 Q 50.33 6.871 50.366 6.488 A 4.977 4.977 0 0 1 50.394 6.246 Z M 81.384 7.434 L 81.384 1.41 A 1.564 1.564 0 0 1 81.395 1.217 Q 81.407 1.121 81.432 1.043 A 0.608 0.608 0 0 1 81.504 0.888 Q 81.624 0.708 81.828 0.672 L 79.278 0.672 L 79.278 0 L 82.146 0 L 82.146 7.5 A 3.423 3.423 0 0 0 82.16 7.818 Q 82.201 8.256 82.365 8.454 A 0.581 0.581 0 0 0 82.577 8.609 Q 82.818 8.718 83.238 8.718 A 5.42 5.42 0 0 0 83.655 8.703 Q 83.982 8.678 84.243 8.61 A 5.873 5.873 0 0 0 84.867 8.409 A 6.833 6.833 0 0 0 85.098 8.316 L 85.098 9.042 Q 84.792 9.192 84.306 9.3 A 4.188 4.188 0 0 1 83.846 9.374 Q 83.608 9.399 83.338 9.406 A 7.756 7.756 0 0 1 83.154 9.408 A 3.904 3.904 0 0 1 82.75 9.389 Q 82.274 9.339 82.002 9.162 Q 81.624 8.916 81.504 8.472 Q 81.384 8.028 81.384 7.434 Z M 37.236 8.16 L 37.032 8.01 L 37.314 7.878 Q 37.44 8.166 37.698 8.352 A 1.729 1.729 0 0 0 38.197 8.599 A 2.007 2.007 0 0 0 38.289 8.625 Q 38.622 8.712 38.97 8.712 Q 39.54 8.712 40.017 8.376 A 2.084 2.084 0 0 0 40.538 7.839 A 2.807 2.807 0 0 0 40.779 7.404 A 3.085 3.085 0 0 0 40.992 6.708 Q 41.05 6.394 41.061 6.036 A 5.453 5.453 0 0 0 41.064 5.868 A 5.296 5.296 0 0 0 41.022 5.174 Q 40.928 4.469 40.629 4.017 A 1.392 1.392 0 0 0 39.631 3.379 A 1.908 1.908 0 0 0 39.354 3.36 Q 38.898 3.36 38.487 3.507 Q 38.076 3.654 37.77 3.954 Q 37.464 4.254 37.314 4.716 L 37.254 4.512 L 37.314 4.242 A 1.833 1.833 0 0 1 37.5 3.705 A 1.623 1.623 0 0 1 37.731 3.381 Q 38.052 3.03 38.514 2.847 Q 38.976 2.664 39.48 2.664 A 2.324 2.324 0 0 1 40.17 2.763 A 1.982 1.982 0 0 1 40.731 3.039 A 2.16 2.16 0 0 1 41.318 3.67 A 2.93 2.93 0 0 1 41.55 4.134 A 3.748 3.748 0 0 1 41.754 4.864 Q 41.817 5.213 41.833 5.614 A 6.957 6.957 0 0 1 41.838 5.886 A 4.931 4.931 0 0 1 41.755 6.812 A 3.658 3.658 0 0 1 41.448 7.746 A 3.48 3.48 0 0 1 40.996 8.449 A 2.828 2.828 0 0 1 40.419 8.973 Q 39.78 9.408 39.018 9.408 A 1.714 1.714 0 0 1 38.656 9.367 Q 38.493 9.332 38.319 9.266 A 2.874 2.874 0 0 1 38.289 9.255 Q 37.896 9.102 37.596 8.82 A 1.213 1.213 0 0 1 37.341 8.485 A 1.092 1.092 0 0 1 37.236 8.16 Z M 37.272 9.336 L 36.6 9.336 L 36.594 0 L 37.314 0 L 37.314 2.928 L 37.314 8.112 L 37.422 8.328 L 37.308 8.352 L 37.272 9.336 Z M 17.46 9.426 Q 16.674 9.426 16.038 9.027 Q 15.402 8.628 15.027 7.869 A 3.454 3.454 0 0 1 14.74 7.001 Q 14.663 6.609 14.653 6.16 A 6.055 6.055 0 0 1 14.652 6.03 A 5.026 5.026 0 0 1 14.719 5.189 Q 14.81 4.65 15.027 4.215 Q 15.402 3.462 16.038 3.063 Q 16.674 2.664 17.46 2.664 Q 18.246 2.664 18.882 3.063 A 2.673 2.673 0 0 1 19.716 3.903 A 3.356 3.356 0 0 1 19.893 4.215 A 3.428 3.428 0 0 1 20.186 5.102 Q 20.268 5.532 20.268 6.03 Q 20.268 6.985 19.984 7.683 A 3.049 3.049 0 0 1 19.893 7.887 A 3.043 3.043 0 0 1 19.453 8.554 A 2.494 2.494 0 0 1 18.882 9.036 Q 18.246 9.426 17.46 9.426 Z M 70.986 9.336 L 70.254 9.336 L 70.254 4.788 A 5.089 5.089 0 0 0 70.241 4.412 Q 70.214 4.05 70.131 3.817 A 1.095 1.095 0 0 0 70.086 3.708 A 0.7 0.7 0 0 0 69.958 3.521 Q 69.812 3.371 69.587 3.361 A 0.741 0.741 0 0 0 69.552 3.36 A 0.933 0.933 0 0 0 68.864 3.653 A 1.228 1.228 0 0 0 68.826 3.693 A 2.458 2.458 0 0 0 68.577 4.025 Q 68.47 4.194 68.373 4.398 A 4.75 4.75 0 0 0 68.286 4.59 L 68.256 4.788 L 68.178 4.71 A 6.309 6.309 0 0 1 68.296 4.152 Q 68.446 3.58 68.679 3.238 A 1.61 1.61 0 0 1 68.748 3.144 A 1.316 1.316 0 0 1 69.148 2.799 Q 69.416 2.653 69.751 2.652 A 1.512 1.512 0 0 1 69.756 2.652 Q 70.377 2.652 70.68 3.148 A 1.281 1.281 0 0 1 70.683 3.153 Q 70.986 3.653 70.986 4.576 A 6.354 6.354 0 0 1 70.986 4.578 L 70.986 9.336 Z M 18.927 8.034 A 2.285 2.285 0 0 0 18.936 8.022 A 2.365 2.365 0 0 0 19.341 7.232 Q 19.5 6.712 19.5 6.03 A 4.689 4.689 0 0 0 19.445 5.285 Q 19.38 4.884 19.24 4.561 A 2.153 2.153 0 0 0 18.933 4.053 A 1.798 1.798 0 0 0 17.627 3.366 A 2.252 2.252 0 0 0 17.46 3.36 A 1.882 1.882 0 0 0 16.65 3.531 Q 16.278 3.706 15.992 4.059 A 2.322 2.322 0 0 0 15.987 4.065 Q 15.42 4.77 15.42 6.03 Q 15.42 7.308 15.987 8.019 Q 16.554 8.73 17.46 8.73 Q 18.364 8.73 18.927 8.034 Z M 32.52 9.216 L 31.8 9.216 L 31.8 4.206 A 1.92 1.92 0 0 1 31.808 4.024 Q 31.826 3.833 31.886 3.711 A 0.51 0.51 0 0 1 31.902 3.681 A 0.46 0.46 0 0 1 31.995 3.565 A 0.379 0.379 0 0 1 32.19 3.474 L 31.8 3.39 L 31.8 2.892 L 32.52 2.79 L 32.52 9.216 Z M 34.614 9.336 L 29.532 9.336 L 29.532 8.688 L 34.614 8.688 L 34.614 9.336 Z M 26.424 7.392 L 26.424 6.036 Q 25.98 6.054 25.596 6.096 Q 25.212 6.138 24.891 6.192 A 9.923 9.923 0 0 0 24.625 6.24 Q 24.503 6.264 24.395 6.289 A 5.766 5.766 0 0 0 24.324 6.306 A 4.48 4.48 0 0 0 23.927 6.417 Q 23.538 6.548 23.316 6.722 A 1.026 1.026 0 0 0 23.22 6.807 A 1.066 1.066 0 0 0 22.912 7.5 A 1.429 1.429 0 0 0 22.908 7.608 A 1.45 1.45 0 0 0 22.95 7.965 A 0.983 0.983 0 0 0 23.259 8.478 A 1.168 1.168 0 0 0 23.683 8.709 Q 23.931 8.787 24.252 8.79 A 2.555 2.555 0 0 0 25.002 8.682 A 2.35 2.35 0 0 0 25.233 8.598 A 2.514 2.514 0 0 0 25.781 8.283 A 2.224 2.224 0 0 0 26.004 8.088 Q 26.322 7.77 26.424 7.392 Z M 62.424 7.392 L 62.424 6.036 Q 61.98 6.054 61.596 6.096 Q 61.212 6.138 60.891 6.192 A 9.923 9.923 0 0 0 60.625 6.24 Q 60.503 6.264 60.395 6.289 A 5.766 5.766 0 0 0 60.324 6.306 A 4.48 4.48 0 0 0 59.927 6.417 Q 59.538 6.548 59.316 6.722 A 1.026 1.026 0 0 0 59.22 6.807 A 1.066 1.066 0 0 0 58.912 7.5 A 1.429 1.429 0 0 0 58.908 7.608 A 1.45 1.45 0 0 0 58.95 7.965 A 0.983 0.983 0 0 0 59.259 8.478 A 1.168 1.168 0 0 0 59.683 8.709 Q 59.931 8.787 60.252 8.79 A 2.555 2.555 0 0 0 61.002 8.682 A 2.35 2.35 0 0 0 61.233 8.598 A 2.514 2.514 0 0 0 61.781 8.283 A 2.224 2.224 0 0 0 62.004 8.088 Q 62.322 7.77 62.424 7.392 Z M 76.824 7.392 L 76.824 6.036 Q 76.38 6.054 75.996 6.096 Q 75.612 6.138 75.291 6.192 A 9.923 9.923 0 0 0 75.025 6.24 Q 74.903 6.264 74.795 6.289 A 5.766 5.766 0 0 0 74.724 6.306 A 4.48 4.48 0 0 0 74.327 6.417 Q 73.938 6.548 73.716 6.722 A 1.026 1.026 0 0 0 73.62 6.807 A 1.066 1.066 0 0 0 73.312 7.5 A 1.429 1.429 0 0 0 73.308 7.608 A 1.45 1.45 0 0 0 73.35 7.965 A 0.983 0.983 0 0 0 73.659 8.478 A 1.168 1.168 0 0 0 74.083 8.709 Q 74.331 8.787 74.652 8.79 A 2.555 2.555 0 0 0 75.402 8.682 A 2.35 2.35 0 0 0 75.633 8.598 A 2.514 2.514 0 0 0 76.181 8.283 A 2.224 2.224 0 0 0 76.404 8.088 Q 76.722 7.77 76.824 7.392 Z M 32.52 2.79 L 29.55 2.79 L 29.55 3.474 L 32.52 3.474 L 32.52 2.79 Z M 32.16 1.542 Q 31.866 1.542 31.665 1.335 A 0.703 0.703 0 0 1 31.47 0.912 A 0.955 0.955 0 0 1 31.464 0.804 A 0.853 0.853 0 0 1 31.497 0.561 A 0.672 0.672 0 0 1 31.665 0.276 A 0.666 0.666 0 0 1 32.149 0.072 A 0.838 0.838 0 0 1 32.16 0.072 Q 32.454 0.072 32.655 0.276 Q 32.856 0.48 32.856 0.804 A 0.853 0.853 0 0 1 32.82 1.056 A 0.684 0.684 0 0 1 32.655 1.335 A 0.661 0.661 0 0 1 32.178 1.542 A 0.824 0.824 0 0 1 32.16 1.542 Z" fill="#C4C4C4"/>
</svg>
